<svg xmlns="http://www.w3.org/2000/svg" xmlns:xlink="http://www.w3.org/1999/xlink" width="40" zoomAndPan="magnify" viewBox="0 0 30 30.000001" height="40" preserveAspectRatio="xMidYMid meet" version="1.0"><defs><clipPath id="e11d6635e7"><path d="M 26 21 L 26.632812 21 L 26.632812 22 L 26 22 Z M 26 21 " clip-rule="nonzero"/></clipPath><clipPath id="54a9e229a1"><path d="M 18 18.480469 L 26.632812 18.480469 L 26.632812 26.464844 L 18 26.464844 Z M 18 18.480469 " clip-rule="nonzero"/></clipPath><clipPath id="d13990bb77"><path d="M 25 23 L 26.632812 23 L 26.632812 24 L 25 24 Z M 25 23 " clip-rule="nonzero"/></clipPath><clipPath id="80cc2fdad1"><path d="M 17.921875 22 L 19 22 L 19 23 L 17.921875 23 Z M 17.921875 22 " clip-rule="nonzero"/></clipPath><clipPath id="4f8b8cbdda"><path d="M 3.039062 0.402344 L 26.988281 0.402344 L 26.988281 28.707031 L 3.039062 28.707031 Z M 3.039062 0.402344 " clip-rule="nonzero"/></clipPath><clipPath id="3667b1b73c"><path d="M 11 5 L 12.097656 5 L 12.097656 6 L 11 6 Z M 11 5 " clip-rule="nonzero"/></clipPath><clipPath id="bdae948a6b"><path d="M 3.386719 2.902344 L 12 2.902344 L 12 10.886719 L 3.386719 10.886719 Z M 3.386719 2.902344 " clip-rule="nonzero"/></clipPath><clipPath id="2f04175c76"><path d="M 7 9 L 9 9 L 9 10.886719 L 7 10.886719 Z M 7 9 " clip-rule="nonzero"/></clipPath><clipPath id="b2b4856838"><path d="M 3.386719 4 L 5 4 L 5 6 L 3.386719 6 Z M 3.386719 4 " clip-rule="nonzero"/></clipPath><clipPath id="9fee3954d4"><path d="M 3.386719 8 L 5 8 L 5 9 L 3.386719 9 Z M 3.386719 8 " clip-rule="nonzero"/></clipPath><clipPath id="65bb644d7b"><path d="M 3.386719 6 L 4 6 L 4 7 L 3.386719 7 Z M 3.386719 6 " clip-rule="nonzero"/></clipPath></defs><g clip-path="url(#e11d6635e7)"><path fill="#8fac6a" d="M 26.574219 21.457031 C 26.609375 21.332031 26.546875 21.164062 26.394531 21.160156 C 26.265625 21.15625 26.179688 21.285156 26.21875 21.410156 C 26.265625 21.574219 26.515625 21.652344 26.574219 21.457031 " fill-opacity="1" fill-rule="nonzero"/></g><g clip-path="url(#54a9e229a1)"><path fill="#8fac6a" d="M 26.253906 22.484375 C 26.28125 22.4375 26.292969 22.386719 26.289062 22.339844 L 26.28125 22.289062 L 26.277344 22.285156 L 26.273438 22.273438 L 26.269531 22.257812 L 26.25 22.21875 L 26.226562 22.183594 C 26.191406 22.136719 26.140625 22.089844 26.085938 22.050781 C 25.972656 21.964844 25.839844 21.894531 25.703125 21.832031 C 25.667969 21.820312 25.636719 21.804688 25.601562 21.789062 C 25.570312 21.777344 25.542969 21.769531 25.507812 21.761719 C 25.4375 21.746094 25.359375 21.738281 25.273438 21.710938 C 25.230469 21.699219 25.1875 21.679688 25.144531 21.648438 C 25.136719 21.640625 25.125 21.636719 25.113281 21.625 C 25.105469 21.617188 25.09375 21.605469 25.085938 21.597656 L 25.066406 21.574219 L 25.0625 21.566406 L 25.054688 21.558594 L 25.042969 21.542969 C 25.015625 21.496094 25 21.445312 24.992188 21.398438 C 24.988281 21.351562 24.988281 21.304688 24.992188 21.265625 C 24.996094 21.183594 25.015625 21.109375 25.023438 21.042969 C 25.027344 21.007812 25.027344 20.976562 25.027344 20.953125 C 25.023438 20.925781 25.015625 20.90625 25.007812 20.890625 L 25.003906 20.882812 C 24.984375 20.847656 24.957031 20.824219 24.921875 20.808594 C 24.882812 20.792969 24.832031 20.785156 24.78125 20.78125 C 24.675781 20.777344 24.558594 20.789062 24.441406 20.792969 C 24.378906 20.796875 24.320312 20.796875 24.253906 20.792969 C 24.191406 20.785156 24.121094 20.769531 24.050781 20.730469 C 24.035156 20.71875 24.019531 20.703125 24.003906 20.691406 C 23.992188 20.675781 23.976562 20.664062 23.964844 20.644531 C 23.945312 20.613281 23.929688 20.578125 23.917969 20.542969 C 23.914062 20.523438 23.90625 20.5 23.90625 20.492188 L 23.902344 20.46875 C 23.902344 20.460938 23.902344 20.457031 23.902344 20.441406 C 23.902344 20.429688 23.902344 20.417969 23.902344 20.402344 L 23.910156 20.375 C 23.914062 20.351562 23.917969 20.339844 23.925781 20.324219 C 23.972656 20.203125 24.035156 20.113281 24.09375 20.019531 C 24.152344 19.929688 24.210938 19.839844 24.261719 19.75 C 24.316406 19.660156 24.367188 19.570312 24.40625 19.484375 C 24.425781 19.4375 24.441406 19.394531 24.449219 19.351562 C 24.460938 19.308594 24.460938 19.269531 24.453125 19.242188 C 24.445312 19.214844 24.433594 19.195312 24.402344 19.183594 C 24.371094 19.167969 24.332031 19.15625 24.289062 19.15625 C 24.269531 19.152344 24.25 19.152344 24.226562 19.152344 L 24.171875 19.152344 L 24.15625 19.15625 C 24.117188 19.160156 24.078125 19.167969 24.042969 19.183594 C 23.96875 19.214844 23.898438 19.265625 23.835938 19.324219 C 23.773438 19.386719 23.714844 19.453125 23.664062 19.519531 C 23.609375 19.585938 23.558594 19.65625 23.507812 19.726562 C 23.480469 19.761719 23.453125 19.796875 23.429688 19.828125 C 23.414062 19.847656 23.40625 19.859375 23.394531 19.875 C 23.382812 19.890625 23.375 19.90625 23.363281 19.921875 C 23.289062 20.050781 23.253906 20.207031 23.195312 20.347656 C 23.167969 20.421875 23.132812 20.492188 23.089844 20.554688 C 23.066406 20.585938 23.039062 20.613281 23.015625 20.640625 C 22.984375 20.667969 22.953125 20.695312 22.925781 20.710938 L 22.90625 20.726562 L 22.898438 20.726562 L 22.890625 20.734375 L 22.878906 20.738281 C 22.863281 20.746094 22.847656 20.757812 22.828125 20.761719 C 22.796875 20.777344 22.753906 20.785156 22.710938 20.78125 C 22.667969 20.777344 22.625 20.753906 22.601562 20.722656 C 22.574219 20.691406 22.558594 20.65625 22.550781 20.628906 C 22.527344 20.566406 22.519531 20.507812 22.511719 20.453125 C 22.503906 20.398438 22.496094 20.347656 22.488281 20.300781 C 22.484375 20.28125 22.480469 20.261719 22.472656 20.242188 C 22.460938 20.203125 22.441406 20.171875 22.414062 20.15625 C 22.386719 20.136719 22.335938 20.140625 22.277344 20.164062 C 22.265625 20.167969 22.25 20.175781 22.238281 20.179688 C 22.222656 20.1875 22.207031 20.199219 22.191406 20.207031 C 22.164062 20.222656 22.144531 20.238281 22.121094 20.261719 C 22.074219 20.308594 22.03125 20.371094 21.980469 20.441406 C 21.957031 20.472656 21.925781 20.511719 21.886719 20.542969 C 21.867188 20.558594 21.84375 20.574219 21.816406 20.585938 C 21.789062 20.597656 21.761719 20.609375 21.730469 20.609375 C 21.699219 20.613281 21.671875 20.605469 21.640625 20.601562 C 21.613281 20.59375 21.585938 20.582031 21.5625 20.574219 L 21.507812 20.546875 L 21.503906 20.542969 L 21.496094 20.539062 C 21.476562 20.523438 21.449219 20.507812 21.429688 20.488281 C 21.34375 20.40625 21.304688 20.292969 21.289062 20.191406 C 21.257812 19.980469 21.296875 19.773438 21.308594 19.578125 L 21.308594 19.570312 C 21.320312 19.472656 21.324219 19.367188 21.324219 19.261719 C 21.320312 19.15625 21.316406 19.050781 21.300781 18.941406 C 21.285156 18.835938 21.265625 18.730469 21.226562 18.636719 C 21.207031 18.589844 21.183594 18.546875 21.15625 18.519531 C 21.128906 18.492188 21.101562 18.480469 21.070312 18.484375 C 21.027344 18.484375 20.972656 18.511719 20.925781 18.542969 L 20.886719 18.570312 L 20.847656 18.605469 L 20.832031 18.621094 C 20.832031 18.621094 20.832031 18.621094 20.828125 18.621094 L 20.828125 18.625 L 20.816406 18.636719 C 20.804688 18.644531 20.796875 18.65625 20.789062 18.667969 C 20.71875 18.753906 20.691406 18.878906 20.683594 19.007812 C 20.667969 19.261719 20.714844 19.523438 20.726562 19.78125 C 20.730469 19.910156 20.730469 20.039062 20.695312 20.171875 C 20.675781 20.238281 20.648438 20.300781 20.601562 20.355469 C 20.589844 20.371094 20.578125 20.382812 20.566406 20.398438 C 20.550781 20.410156 20.535156 20.421875 20.519531 20.433594 L 20.484375 20.457031 L 20.46875 20.464844 L 20.464844 20.46875 L 20.457031 20.46875 L 20.433594 20.480469 C 20.421875 20.488281 20.40625 20.492188 20.386719 20.496094 C 20.371094 20.5 20.351562 20.507812 20.332031 20.507812 L 20.304688 20.511719 C 20.296875 20.511719 20.289062 20.507812 20.277344 20.507812 C 20.257812 20.507812 20.242188 20.503906 20.222656 20.5 C 20.191406 20.488281 20.160156 20.476562 20.140625 20.464844 C 20.117188 20.457031 20.105469 20.453125 20.101562 20.453125 C 20.09375 20.449219 20.058594 20.480469 20.035156 20.511719 C 20 20.554688 19.980469 20.578125 19.964844 20.621094 C 19.917969 20.722656 19.894531 20.835938 19.855469 20.941406 C 19.855469 20.941406 19.855469 20.945312 19.855469 20.949219 C 19.847656 20.976562 19.839844 21.007812 19.828125 21.039062 C 19.820312 21.054688 19.8125 21.066406 19.796875 21.082031 C 19.789062 21.09375 19.78125 21.105469 19.769531 21.121094 C 19.71875 21.175781 19.65625 21.21875 19.582031 21.25 C 19.433594 21.3125 19.253906 21.316406 19.070312 21.320312 C 19.027344 21.320312 18.980469 21.324219 18.929688 21.324219 C 18.882812 21.324219 18.832031 21.328125 18.785156 21.328125 C 18.6875 21.335938 18.585938 21.34375 18.5 21.378906 C 18.457031 21.394531 18.417969 21.417969 18.390625 21.445312 C 18.375 21.460938 18.363281 21.480469 18.351562 21.496094 L 18.332031 21.53125 L 18.320312 21.5625 C 18.308594 21.601562 18.304688 21.640625 18.320312 21.667969 C 18.332031 21.699219 18.363281 21.734375 18.410156 21.761719 C 18.496094 21.824219 18.609375 21.871094 18.726562 21.925781 C 18.789062 21.953125 18.847656 21.984375 18.910156 22.019531 C 18.96875 22.058594 19.03125 22.101562 19.082031 22.171875 C 19.136719 22.234375 19.171875 22.328125 19.164062 22.417969 L 19.160156 22.449219 L 19.160156 22.476562 L 19.15625 22.488281 L 19.15625 22.492188 L 19.148438 22.515625 C 19.148438 22.519531 19.144531 22.523438 19.140625 22.53125 L 19.132812 22.550781 C 19.117188 22.582031 19.105469 22.59375 19.089844 22.613281 C 19.078125 22.632812 19.0625 22.644531 19.046875 22.660156 C 18.929688 22.769531 18.800781 22.832031 18.675781 22.902344 C 18.554688 22.96875 18.429688 23.03125 18.335938 23.109375 C 18.292969 23.144531 18.25 23.1875 18.246094 23.21875 C 18.242188 23.230469 18.246094 23.242188 18.25 23.257812 C 18.257812 23.273438 18.269531 23.292969 18.285156 23.3125 C 18.320312 23.351562 18.371094 23.386719 18.417969 23.417969 L 18.460938 23.441406 L 18.480469 23.453125 L 18.496094 23.460938 C 18.523438 23.476562 18.554688 23.488281 18.582031 23.5 C 18.609375 23.511719 18.632812 23.519531 18.660156 23.527344 C 18.6875 23.539062 18.71875 23.546875 18.746094 23.554688 C 18.808594 23.570312 18.867188 23.585938 18.925781 23.601562 C 19.046875 23.636719 19.171875 23.683594 19.28125 23.761719 C 19.300781 23.777344 19.324219 23.796875 19.347656 23.8125 C 19.371094 23.832031 19.394531 23.851562 19.417969 23.871094 C 19.4375 23.890625 19.460938 23.910156 19.480469 23.933594 C 19.5 23.953125 19.519531 23.972656 19.539062 23.992188 C 19.617188 24.078125 19.683594 24.167969 19.738281 24.257812 C 19.75 24.277344 19.765625 24.300781 19.777344 24.324219 C 19.789062 24.347656 19.800781 24.371094 19.8125 24.390625 L 19.820312 24.410156 L 19.824219 24.417969 L 19.828125 24.421875 L 19.828125 24.429688 L 19.84375 24.464844 C 19.851562 24.484375 19.859375 24.503906 19.867188 24.53125 C 19.878906 24.578125 19.894531 24.628906 19.898438 24.675781 C 19.902344 24.6875 19.902344 24.699219 19.90625 24.714844 C 19.917969 24.671875 19.929688 24.636719 19.9375 24.597656 C 19.957031 24.492188 19.945312 24.402344 19.914062 24.332031 C 19.886719 24.261719 19.84375 24.214844 19.820312 24.183594 C 19.792969 24.152344 19.773438 24.132812 19.78125 24.128906 C 19.785156 24.125 19.804688 24.128906 19.84375 24.152344 C 19.882812 24.179688 19.9375 24.222656 19.984375 24.296875 C 20.03125 24.375 20.058594 24.488281 20.042969 24.613281 C 20.03125 24.738281 19.984375 24.871094 19.921875 25.007812 C 19.855469 25.144531 19.773438 25.285156 19.691406 25.4375 C 19.648438 25.511719 19.605469 25.585938 19.570312 25.667969 C 19.53125 25.746094 19.5 25.828125 19.496094 25.902344 C 19.492188 25.976562 19.515625 26.019531 19.589844 26.054688 C 19.660156 26.089844 19.761719 26.109375 19.855469 26.113281 C 19.949219 26.121094 20.042969 26.113281 20.125 26.074219 C 20.203125 26.035156 20.273438 25.972656 20.332031 25.890625 C 20.414062 25.777344 20.476562 25.644531 20.554688 25.515625 C 20.628906 25.386719 20.726562 25.257812 20.855469 25.167969 L 20.902344 25.136719 C 20.917969 25.125 20.9375 25.117188 20.953125 25.109375 C 20.992188 25.089844 21.03125 25.074219 21.082031 25.066406 C 21.113281 25.066406 21.144531 25.066406 21.175781 25.078125 C 21.203125 25.089844 21.230469 25.109375 21.246094 25.128906 C 21.285156 25.167969 21.296875 25.207031 21.3125 25.238281 C 21.34375 25.300781 21.363281 25.355469 21.390625 25.402344 C 21.417969 25.445312 21.449219 25.476562 21.488281 25.5 C 21.53125 25.519531 21.570312 25.53125 21.609375 25.527344 C 21.644531 25.527344 21.683594 25.507812 21.71875 25.480469 C 21.792969 25.421875 21.859375 25.335938 21.941406 25.269531 C 21.960938 25.25 21.988281 25.234375 22.007812 25.222656 C 22.019531 25.214844 22.03125 25.207031 22.042969 25.203125 L 22.054688 25.199219 L 22.058594 25.195312 L 22.066406 25.191406 L 22.082031 25.1875 C 22.101562 25.179688 22.125 25.171875 22.148438 25.164062 C 22.171875 25.15625 22.195312 25.152344 22.214844 25.148438 C 22.246094 25.140625 22.277344 25.136719 22.308594 25.132812 C 22.316406 25.128906 22.328125 25.125 22.339844 25.125 C 22.414062 25.105469 22.5 25.101562 22.582031 25.117188 C 22.75 25.152344 22.894531 25.253906 23.027344 25.367188 C 23.164062 25.484375 23.289062 25.617188 23.433594 25.730469 C 23.507812 25.789062 23.585938 25.839844 23.667969 25.871094 C 23.710938 25.890625 23.753906 25.894531 23.796875 25.902344 C 23.839844 25.902344 23.882812 25.898438 23.921875 25.882812 C 23.933594 25.882812 23.945312 25.878906 23.957031 25.875 L 23.984375 25.859375 C 24.003906 25.855469 24.027344 25.839844 24.050781 25.824219 C 24.089844 25.800781 24.121094 25.769531 24.152344 25.734375 C 24.214844 25.664062 24.257812 25.570312 24.296875 25.46875 C 24.335938 25.363281 24.371094 25.253906 24.425781 25.140625 C 24.4375 25.113281 24.453125 25.085938 24.472656 25.054688 C 24.488281 25.027344 24.511719 24.996094 24.527344 24.972656 L 24.558594 24.9375 L 24.597656 24.898438 C 24.621094 24.875 24.648438 24.855469 24.679688 24.835938 C 24.796875 24.757812 24.933594 24.726562 25.054688 24.707031 C 25.121094 24.695312 25.179688 24.6875 25.238281 24.675781 C 25.292969 24.664062 25.34375 24.648438 25.382812 24.625 C 25.421875 24.597656 25.449219 24.566406 25.464844 24.519531 C 25.46875 24.507812 25.472656 24.496094 25.476562 24.484375 C 25.480469 24.472656 25.480469 24.457031 25.484375 24.445312 C 25.484375 24.429688 25.488281 24.417969 25.488281 24.402344 C 25.488281 24.390625 25.488281 24.378906 25.488281 24.359375 C 25.488281 24.238281 25.472656 24.113281 25.445312 23.992188 C 25.417969 23.867188 25.371094 23.742188 25.34375 23.59375 C 25.328125 23.523438 25.324219 23.441406 25.339844 23.355469 L 25.355469 23.296875 C 25.359375 23.273438 25.371094 23.257812 25.382812 23.238281 C 25.390625 23.21875 25.398438 23.199219 25.410156 23.183594 L 25.445312 23.132812 C 25.46875 23.101562 25.496094 23.074219 25.523438 23.046875 C 25.546875 23.019531 25.578125 22.996094 25.605469 22.96875 L 25.652344 22.933594 C 25.667969 22.921875 25.679688 22.914062 25.695312 22.902344 L 25.78125 22.839844 C 25.90625 22.757812 26.03125 22.695312 26.132812 22.613281 C 26.183594 22.574219 26.226562 22.53125 26.253906 22.484375 " fill-opacity="1" fill-rule="nonzero"/></g><g clip-path="url(#d13990bb77)"><path fill="#8fac6a" d="M 26.082031 23.648438 C 26.238281 23.636719 26.511719 23.484375 26.339844 23.3125 C 26.164062 23.15625 25.941406 23.335938 25.9375 23.539062 C 25.933594 23.628906 25.996094 23.65625 26.082031 23.648438 " fill-opacity="1" fill-rule="nonzero"/></g><path fill="#8fac6a" d="M 25.597656 20.40625 C 25.636719 20.335938 25.582031 20.261719 25.503906 20.210938 C 25.339844 20.109375 25.199219 20.3125 25.25 20.46875 C 25.265625 20.527344 25.332031 20.542969 25.398438 20.53125 C 25.476562 20.515625 25.5625 20.472656 25.597656 20.40625 " fill-opacity="1" fill-rule="nonzero"/><path fill="#8fac6a" d="M 25.257812 25.503906 C 25.335938 25.453125 25.265625 25.347656 25.226562 25.285156 C 25.167969 25.214844 25.039062 25.128906 24.945312 25.179688 C 24.894531 25.210938 24.84375 25.273438 24.84375 25.339844 C 24.839844 25.421875 24.917969 25.476562 24.992188 25.503906 C 25.070312 25.53125 25.183594 25.550781 25.257812 25.503906 " fill-opacity="1" fill-rule="nonzero"/><path fill="#8fac6a" d="M 22.777344 25.753906 C 22.816406 25.675781 22.753906 25.617188 22.691406 25.582031 C 22.601562 25.53125 22.433594 25.585938 22.433594 25.707031 C 22.429688 25.796875 22.496094 25.875 22.59375 25.867188 C 22.664062 25.859375 22.742188 25.820312 22.777344 25.753906 " fill-opacity="1" fill-rule="nonzero"/><path fill="#8fac6a" d="M 22.183594 19.449219 C 22.199219 19.355469 22.179688 19.253906 22.144531 19.167969 C 22.121094 19.125 22.085938 19.058594 22.035156 19.050781 C 21.972656 19.039062 21.914062 19.101562 21.890625 19.152344 C 21.839844 19.265625 21.882812 19.417969 21.949219 19.515625 C 22.03125 19.636719 22.164062 19.585938 22.183594 19.449219 " fill-opacity="1" fill-rule="nonzero"/><path fill="#8fac6a" d="M 19.148438 20.558594 C 19.148438 20.355469 19.011719 20.175781 18.785156 20.226562 C 18.621094 20.261719 18.507812 20.363281 18.515625 20.539062 C 18.546875 20.707031 18.65625 20.816406 18.832031 20.820312 C 19.007812 20.828125 19.148438 20.753906 19.148438 20.558594 " fill-opacity="1" fill-rule="nonzero"/><path fill="#8fac6a" d="M 18.203125 24.269531 C 18.308594 24.554688 18.847656 24.324219 18.585938 24.050781 C 18.503906 23.976562 18.394531 23.964844 18.304688 24.03125 C 18.234375 24.082031 18.171875 24.183594 18.203125 24.269531 " fill-opacity="1" fill-rule="nonzero"/><g clip-path="url(#80cc2fdad1)"><path fill="#8fac6a" d="M 18.195312 22.480469 C 18.390625 22.429688 18.164062 22.179688 18.027344 22.210938 C 18.003906 22.21875 17.933594 22.230469 17.925781 22.257812 C 17.917969 22.289062 17.925781 22.339844 17.945312 22.367188 C 17.988281 22.4375 18.105469 22.503906 18.195312 22.480469 " fill-opacity="1" fill-rule="nonzero"/></g><g clip-path="url(#4f8b8cbdda)"><path fill="#98484b" d="M 20.335938 13.671875 C 20.175781 13.703125 20.128906 13.84375 20.046875 13.941406 C 19.304688 14.851562 18.480469 15.679688 17.542969 16.386719 C 16.347656 17.289062 15.03125 17.941406 13.59375 18.347656 C 12.902344 18.542969 12.191406 18.578125 11.480469 18.578125 C 11.183594 18.578125 10.898438 18.5 10.628906 18.363281 C 10.535156 18.320312 10.445312 18.269531 10.363281 18.222656 C 10.277344 18.269531 10.203125 18.332031 10.132812 18.332031 C 10.074219 18.335938 10 18.269531 9.960938 18.214844 C 9.84375 18.050781 9.804688 17.859375 9.816406 17.667969 C 9.859375 16.894531 9.941406 16.132812 10.277344 15.421875 C 10.777344 14.367188 11.519531 13.519531 12.457031 12.84375 C 13.304688 12.230469 14.253906 11.816406 15.242188 11.496094 C 15.902344 11.28125 16.5625 11.0625 17.234375 10.898438 C 18.164062 10.675781 19.023438 10.289062 19.875 9.882812 C 20.398438 9.636719 20.894531 9.347656 21.359375 8.996094 C 22.042969 8.480469 22.589844 7.847656 22.941406 7.058594 C 22.96875 6.988281 22.988281 6.917969 23.011719 6.847656 C 23.015625 6.839844 22.996094 6.824219 22.976562 6.796875 C 22.929688 6.820312 22.875 6.839844 22.835938 6.871094 C 22.378906 7.203125 21.871094 7.441406 21.355469 7.667969 C 20.335938 8.117188 19.269531 8.40625 18.183594 8.644531 C 16.914062 8.929688 15.648438 9.226562 14.386719 9.53125 C 13.667969 9.703125 12.964844 9.9375 12.277344 10.203125 C 10.023438 11.070312 8.289062 12.550781 7.023438 14.589844 C 6.140625 16.015625 5.570312 17.558594 5.257812 19.203125 C 5.078125 20.136719 4.988281 21.078125 4.972656 22.027344 C 4.941406 23.703125 5.039062 25.367188 5.34375 27.019531 C 5.398438 27.328125 5.484375 27.625 5.613281 27.90625 C 5.664062 28.015625 5.714844 28.121094 5.75 28.234375 C 5.789062 28.363281 5.710938 28.496094 5.582031 28.558594 C 5.453125 28.621094 5.3125 28.589844 5.226562 28.46875 C 5.195312 28.421875 5.171875 28.367188 5.144531 28.3125 C 5.066406 28.140625 4.976562 27.96875 4.90625 27.789062 C 4.226562 26.003906 3.640625 24.195312 3.390625 22.289062 C 3.265625 21.335938 3.125 20.382812 3.09375 19.421875 C 3.039062 17.539062 3.273438 15.703125 3.933594 13.929688 C 4.835938 11.5 6.402344 9.609375 8.570312 8.203125 C 10.007812 7.269531 11.574219 6.625 13.222656 6.164062 C 14.289062 5.863281 15.378906 5.65625 16.46875 5.457031 C 17.777344 5.214844 19.085938 4.980469 20.355469 4.574219 C 21.71875 4.132812 22.984375 3.507812 24.101562 2.601562 C 24.640625 2.160156 25.128906 1.664062 25.574219 1.128906 C 25.714844 0.960938 25.855469 0.785156 26.023438 0.636719 C 26.285156 0.40625 26.574219 0.503906 26.65625 0.847656 C 26.699219 1.019531 26.726562 1.199219 26.734375 1.375 C 26.816406 3.328125 26.953125 5.277344 26.929688 7.230469 C 26.902344 9.386719 26.648438 11.511719 26.128906 13.601562 C 25.898438 14.523438 25.609375 15.421875 25.253906 16.300781 C 24.277344 18.703125 22.699219 20.609375 20.539062 22.042969 C 19.425781 22.78125 18.234375 23.371094 17.015625 23.910156 C 16.8125 24 16.609375 24.085938 16.40625 24.171875 C 16.339844 24.203125 16.261719 24.21875 16.203125 24.265625 C 15.859375 24.53125 15.441406 24.644531 15.050781 24.820312 C 14.171875 25.214844 13.324219 25.664062 12.507812 26.167969 C 11.71875 26.660156 11.03125 27.257812 10.492188 28.019531 C 10.417969 28.128906 10.332031 28.234375 10.238281 28.324219 C 10.050781 28.503906 9.839844 28.480469 9.726562 28.253906 C 9.5625 27.921875 9.414062 27.589844 9.441406 27.199219 C 9.523438 26.039062 9.777344 24.917969 10.261719 23.855469 C 10.335938 23.695312 10.433594 23.554688 10.597656 23.457031 C 10.707031 23.390625 10.808594 23.292969 10.890625 23.191406 C 11.488281 22.441406 12.207031 21.832031 13.015625 21.324219 C 13.554688 20.988281 14.113281 20.6875 14.667969 20.378906 C 15.109375 20.132812 15.558594 19.910156 15.996094 19.660156 C 16.640625 19.292969 17.234375 18.855469 17.75 18.3125 C 18.257812 17.773438 18.765625 17.238281 19.179688 16.621094 C 19.757812 15.761719 20.140625 14.824219 20.332031 13.804688 C 20.339844 13.765625 20.335938 13.71875 20.335938 13.671875 Z M 20.335938 13.671875 " fill-opacity="1" fill-rule="nonzero"/></g><g clip-path="url(#3667b1b73c)"><path fill="#8fac6a" d="M 12.039062 5.878906 C 12.074219 5.753906 12.011719 5.585938 11.859375 5.582031 C 11.730469 5.578125 11.644531 5.707031 11.683594 5.832031 C 11.730469 5.996094 11.980469 6.074219 12.039062 5.878906 " fill-opacity="1" fill-rule="nonzero"/></g><g clip-path="url(#bdae948a6b)"><path fill="#8fac6a" d="M 11.71875 6.90625 C 11.746094 6.859375 11.757812 6.808594 11.753906 6.761719 L 11.746094 6.710938 L 11.742188 6.707031 L 11.738281 6.695312 L 11.734375 6.679688 L 11.714844 6.640625 L 11.691406 6.605469 C 11.65625 6.558594 11.605469 6.511719 11.550781 6.472656 C 11.4375 6.386719 11.304688 6.316406 11.167969 6.253906 C 11.132812 6.242188 11.101562 6.226562 11.066406 6.210938 C 11.035156 6.199219 11.007812 6.191406 10.972656 6.183594 C 10.902344 6.167969 10.824219 6.160156 10.738281 6.136719 C 10.695312 6.121094 10.652344 6.101562 10.609375 6.070312 C 10.601562 6.0625 10.589844 6.058594 10.578125 6.046875 C 10.570312 6.039062 10.558594 6.027344 10.550781 6.019531 L 10.53125 5.996094 L 10.527344 5.988281 L 10.519531 5.980469 L 10.507812 5.964844 C 10.480469 5.917969 10.464844 5.867188 10.457031 5.820312 C 10.453125 5.773438 10.453125 5.726562 10.457031 5.6875 C 10.460938 5.605469 10.480469 5.53125 10.488281 5.464844 C 10.492188 5.429688 10.492188 5.402344 10.492188 5.375 C 10.488281 5.347656 10.480469 5.328125 10.472656 5.3125 L 10.46875 5.304688 C 10.449219 5.269531 10.421875 5.246094 10.386719 5.230469 C 10.347656 5.214844 10.296875 5.207031 10.246094 5.203125 C 10.140625 5.199219 10.023438 5.210938 9.90625 5.214844 C 9.847656 5.21875 9.785156 5.222656 9.71875 5.214844 C 9.65625 5.207031 9.585938 5.191406 9.515625 5.152344 C 9.5 5.140625 9.484375 5.125 9.46875 5.113281 C 9.457031 5.101562 9.441406 5.085938 9.429688 5.066406 C 9.410156 5.035156 9.394531 5.003906 9.382812 4.964844 C 9.378906 4.945312 9.371094 4.921875 9.371094 4.914062 L 9.367188 4.890625 C 9.367188 4.882812 9.367188 4.878906 9.367188 4.863281 C 9.367188 4.851562 9.367188 4.839844 9.367188 4.824219 L 9.375 4.796875 C 9.378906 4.773438 9.382812 4.761719 9.390625 4.746094 C 9.4375 4.625 9.5 4.535156 9.558594 4.441406 C 9.617188 4.351562 9.675781 4.261719 9.726562 4.171875 C 9.78125 4.082031 9.832031 3.992188 9.871094 3.90625 C 9.890625 3.859375 9.90625 3.816406 9.914062 3.773438 C 9.925781 3.730469 9.925781 3.691406 9.917969 3.664062 C 9.910156 3.636719 9.898438 3.617188 9.867188 3.605469 C 9.835938 3.589844 9.796875 3.578125 9.753906 3.578125 C 9.734375 3.574219 9.714844 3.574219 9.691406 3.574219 L 9.636719 3.574219 L 9.621094 3.578125 C 9.582031 3.582031 9.542969 3.589844 9.507812 3.605469 C 9.433594 3.636719 9.363281 3.691406 9.300781 3.75 C 9.238281 3.808594 9.179688 3.875 9.128906 3.941406 C 9.074219 4.007812 9.023438 4.078125 8.972656 4.148438 C 8.945312 4.183594 8.917969 4.21875 8.894531 4.25 C 8.878906 4.269531 8.871094 4.28125 8.859375 4.296875 C 8.847656 4.3125 8.839844 4.328125 8.828125 4.34375 C 8.753906 4.472656 8.71875 4.628906 8.660156 4.769531 C 8.632812 4.84375 8.597656 4.914062 8.554688 4.976562 C 8.53125 5.007812 8.503906 5.035156 8.480469 5.0625 C 8.449219 5.089844 8.417969 5.117188 8.390625 5.132812 L 8.371094 5.148438 L 8.363281 5.148438 L 8.355469 5.15625 L 8.34375 5.160156 C 8.328125 5.167969 8.3125 5.179688 8.292969 5.183594 C 8.261719 5.199219 8.21875 5.207031 8.175781 5.203125 C 8.132812 5.203125 8.089844 5.175781 8.066406 5.144531 C 8.039062 5.113281 8.023438 5.082031 8.015625 5.050781 C 7.992188 4.988281 7.984375 4.929688 7.976562 4.875 C 7.96875 4.820312 7.960938 4.769531 7.953125 4.722656 C 7.949219 4.703125 7.945312 4.683594 7.9375 4.664062 C 7.925781 4.625 7.90625 4.59375 7.878906 4.578125 C 7.851562 4.558594 7.800781 4.5625 7.746094 4.585938 C 7.730469 4.589844 7.714844 4.597656 7.703125 4.601562 C 7.6875 4.609375 7.671875 4.621094 7.65625 4.628906 C 7.628906 4.644531 7.609375 4.660156 7.585938 4.683594 C 7.539062 4.730469 7.496094 4.792969 7.445312 4.863281 C 7.421875 4.894531 7.394531 4.933594 7.351562 4.964844 C 7.332031 4.980469 7.308594 4.996094 7.28125 5.007812 C 7.253906 5.019531 7.226562 5.03125 7.195312 5.03125 C 7.164062 5.035156 7.136719 5.027344 7.105469 5.023438 C 7.078125 5.015625 7.050781 5.003906 7.027344 4.996094 L 6.972656 4.96875 L 6.96875 4.964844 L 6.960938 4.960938 C 6.941406 4.945312 6.914062 4.929688 6.894531 4.910156 C 6.808594 4.828125 6.769531 4.714844 6.753906 4.613281 C 6.722656 4.402344 6.761719 4.195312 6.773438 4 L 6.773438 3.992188 C 6.785156 3.894531 6.789062 3.789062 6.789062 3.683594 C 6.785156 3.578125 6.78125 3.472656 6.765625 3.363281 C 6.75 3.257812 6.730469 3.152344 6.691406 3.058594 C 6.671875 3.011719 6.648438 2.96875 6.621094 2.941406 C 6.59375 2.914062 6.566406 2.902344 6.535156 2.90625 C 6.492188 2.90625 6.4375 2.933594 6.390625 2.964844 L 6.351562 2.992188 L 6.3125 3.027344 L 6.296875 3.042969 C 6.296875 3.042969 6.296875 3.042969 6.292969 3.042969 L 6.292969 3.046875 L 6.28125 3.058594 C 6.269531 3.066406 6.261719 3.078125 6.253906 3.089844 C 6.183594 3.179688 6.15625 3.300781 6.148438 3.429688 C 6.132812 3.683594 6.179688 3.945312 6.191406 4.203125 C 6.195312 4.332031 6.195312 4.460938 6.160156 4.59375 C 6.140625 4.660156 6.113281 4.722656 6.066406 4.777344 C 6.054688 4.792969 6.042969 4.804688 6.03125 4.820312 C 6.015625 4.832031 6 4.84375 5.984375 4.855469 L 5.949219 4.878906 L 5.933594 4.886719 L 5.929688 4.890625 L 5.921875 4.890625 L 5.898438 4.902344 C 5.886719 4.910156 5.871094 4.914062 5.851562 4.917969 C 5.835938 4.921875 5.816406 4.929688 5.796875 4.929688 L 5.769531 4.933594 C 5.761719 4.933594 5.753906 4.929688 5.742188 4.929688 C 5.722656 4.929688 5.707031 4.925781 5.6875 4.921875 C 5.65625 4.910156 5.625 4.898438 5.605469 4.886719 C 5.582031 4.878906 5.570312 4.875 5.566406 4.875 C 5.558594 4.871094 5.523438 4.902344 5.5 4.933594 C 5.464844 4.976562 5.445312 5.003906 5.429688 5.042969 C 5.382812 5.144531 5.359375 5.257812 5.320312 5.363281 C 5.320312 5.363281 5.320312 5.367188 5.320312 5.371094 C 5.3125 5.398438 5.304688 5.429688 5.292969 5.460938 C 5.285156 5.476562 5.277344 5.488281 5.261719 5.503906 C 5.253906 5.515625 5.246094 5.527344 5.234375 5.542969 C 5.183594 5.597656 5.121094 5.640625 5.046875 5.671875 C 4.898438 5.734375 4.71875 5.738281 4.535156 5.742188 C 4.492188 5.742188 4.445312 5.746094 4.394531 5.746094 C 4.347656 5.746094 4.296875 5.75 4.25 5.75 C 4.152344 5.757812 4.050781 5.765625 3.964844 5.800781 C 3.921875 5.816406 3.882812 5.839844 3.855469 5.867188 C 3.839844 5.882812 3.828125 5.902344 3.816406 5.917969 L 3.796875 5.953125 L 3.785156 5.984375 C 3.773438 6.023438 3.769531 6.0625 3.785156 6.089844 C 3.796875 6.121094 3.828125 6.15625 3.875 6.183594 C 3.960938 6.246094 4.074219 6.292969 4.191406 6.347656 C 4.253906 6.375 4.3125 6.40625 4.375 6.441406 C 4.433594 6.480469 4.496094 6.523438 4.546875 6.59375 C 4.601562 6.65625 4.636719 6.75 4.628906 6.839844 L 4.625 6.871094 L 4.625 6.898438 L 4.621094 6.910156 L 4.621094 6.914062 L 4.613281 6.9375 C 4.613281 6.941406 4.609375 6.945312 4.605469 6.953125 L 4.597656 6.972656 C 4.582031 7.003906 4.570312 7.019531 4.554688 7.035156 C 4.542969 7.054688 4.527344 7.066406 4.511719 7.082031 C 4.394531 7.191406 4.265625 7.253906 4.140625 7.324219 C 4.019531 7.390625 3.894531 7.453125 3.800781 7.53125 C 3.757812 7.566406 3.714844 7.609375 3.710938 7.640625 C 3.707031 7.652344 3.710938 7.664062 3.714844 7.679688 C 3.722656 7.695312 3.734375 7.714844 3.75 7.734375 C 3.785156 7.773438 3.835938 7.808594 3.886719 7.839844 L 3.945312 7.875 L 3.960938 7.882812 C 3.988281 7.898438 4.019531 7.910156 4.046875 7.921875 C 4.074219 7.933594 4.097656 7.941406 4.125 7.953125 C 4.152344 7.960938 4.183594 7.96875 4.210938 7.976562 C 4.273438 7.992188 4.332031 8.007812 4.390625 8.023438 C 4.511719 8.058594 4.636719 8.105469 4.746094 8.183594 C 4.769531 8.199219 4.789062 8.21875 4.8125 8.234375 C 4.835938 8.253906 4.859375 8.273438 4.882812 8.292969 C 4.902344 8.3125 4.925781 8.332031 4.945312 8.355469 C 4.964844 8.375 4.988281 8.394531 5.003906 8.414062 C 5.082031 8.5 5.148438 8.589844 5.203125 8.679688 C 5.214844 8.699219 5.230469 8.722656 5.242188 8.746094 C 5.253906 8.769531 5.265625 8.792969 5.277344 8.8125 L 5.285156 8.832031 L 5.289062 8.839844 L 5.292969 8.84375 L 5.292969 8.851562 L 5.308594 8.886719 C 5.316406 8.90625 5.324219 8.925781 5.332031 8.953125 C 5.34375 9 5.359375 9.050781 5.363281 9.097656 C 5.367188 9.109375 5.367188 9.121094 5.371094 9.136719 C 5.382812 9.09375 5.394531 9.058594 5.402344 9.019531 C 5.421875 8.914062 5.410156 8.824219 5.378906 8.753906 C 5.351562 8.683594 5.3125 8.636719 5.285156 8.605469 C 5.257812 8.574219 5.238281 8.554688 5.246094 8.550781 C 5.25 8.546875 5.269531 8.550781 5.308594 8.578125 C 5.347656 8.601562 5.402344 8.644531 5.449219 8.71875 C 5.496094 8.796875 5.523438 8.910156 5.507812 9.035156 C 5.496094 9.160156 5.449219 9.292969 5.386719 9.429688 C 5.320312 9.566406 5.238281 9.710938 5.15625 9.859375 C 5.113281 9.933594 5.070312 10.007812 5.035156 10.089844 C 4.996094 10.167969 4.964844 10.25 4.960938 10.324219 C 4.957031 10.398438 4.980469 10.441406 5.054688 10.476562 C 5.125 10.511719 5.226562 10.53125 5.320312 10.539062 C 5.414062 10.542969 5.507812 10.535156 5.589844 10.496094 C 5.667969 10.460938 5.738281 10.394531 5.796875 10.3125 C 5.878906 10.199219 5.941406 10.066406 6.019531 9.9375 C 6.09375 9.808594 6.191406 9.679688 6.320312 9.589844 L 6.367188 9.558594 C 6.386719 9.550781 6.402344 9.539062 6.417969 9.53125 C 6.457031 9.511719 6.496094 9.496094 6.546875 9.488281 C 6.578125 9.488281 6.609375 9.488281 6.640625 9.5 C 6.667969 9.511719 6.695312 9.53125 6.710938 9.550781 C 6.75 9.589844 6.761719 9.628906 6.777344 9.660156 C 6.808594 9.722656 6.828125 9.777344 6.855469 9.824219 C 6.882812 9.867188 6.914062 9.898438 6.953125 9.921875 C 6.996094 9.941406 7.035156 9.953125 7.074219 9.949219 C 7.109375 9.949219 7.148438 9.929688 7.183594 9.902344 C 7.257812 9.84375 7.324219 9.757812 7.40625 9.691406 C 7.425781 9.671875 7.453125 9.65625 7.472656 9.644531 C 7.484375 9.636719 7.496094 9.628906 7.507812 9.625 L 7.519531 9.621094 L 7.523438 9.617188 L 7.53125 9.613281 L 7.546875 9.609375 C 7.566406 9.601562 7.589844 9.59375 7.613281 9.585938 C 7.636719 9.578125 7.660156 9.574219 7.679688 9.570312 C 7.710938 9.5625 7.742188 9.558594 7.773438 9.554688 C 7.78125 9.550781 7.792969 9.550781 7.804688 9.546875 C 7.878906 9.527344 7.964844 9.523438 8.046875 9.539062 C 8.214844 9.574219 8.359375 9.675781 8.492188 9.789062 C 8.628906 9.90625 8.753906 10.039062 8.898438 10.152344 C 8.972656 10.210938 9.050781 10.261719 9.132812 10.292969 C 9.175781 10.3125 9.21875 10.320312 9.261719 10.324219 C 9.304688 10.324219 9.347656 10.320312 9.386719 10.304688 C 9.398438 10.304688 9.410156 10.300781 9.421875 10.296875 L 9.449219 10.28125 C 9.46875 10.277344 9.492188 10.261719 9.515625 10.246094 C 9.554688 10.222656 9.585938 10.191406 9.617188 10.15625 C 9.679688 10.085938 9.722656 9.992188 9.761719 9.890625 C 9.800781 9.785156 9.835938 9.675781 9.890625 9.5625 C 9.902344 9.535156 9.917969 9.507812 9.9375 9.476562 C 9.953125 9.453125 9.976562 9.417969 9.992188 9.394531 L 10.023438 9.359375 L 10.0625 9.320312 C 10.085938 9.296875 10.113281 9.277344 10.144531 9.257812 C 10.261719 9.179688 10.398438 9.148438 10.519531 9.128906 C 10.585938 9.121094 10.644531 9.113281 10.703125 9.097656 C 10.757812 9.085938 10.808594 9.070312 10.847656 9.046875 C 10.886719 9.019531 10.914062 8.988281 10.929688 8.941406 C 10.933594 8.929688 10.9375 8.917969 10.941406 8.90625 C 10.945312 8.894531 10.945312 8.878906 10.949219 8.867188 C 10.949219 8.851562 10.953125 8.839844 10.953125 8.824219 C 10.953125 8.8125 10.953125 8.800781 10.953125 8.78125 C 10.953125 8.660156 10.941406 8.535156 10.910156 8.414062 C 10.882812 8.289062 10.835938 8.164062 10.808594 8.019531 C 10.792969 7.945312 10.789062 7.863281 10.804688 7.777344 L 10.820312 7.71875 C 10.824219 7.695312 10.835938 7.679688 10.847656 7.660156 C 10.855469 7.640625 10.863281 7.621094 10.875 7.605469 L 10.910156 7.554688 C 10.933594 7.523438 10.960938 7.496094 10.988281 7.46875 C 11.011719 7.441406 11.042969 7.417969 11.074219 7.390625 L 11.117188 7.355469 C 11.132812 7.34375 11.144531 7.335938 11.160156 7.324219 L 11.246094 7.261719 C 11.371094 7.179688 11.496094 7.117188 11.597656 7.039062 C 11.648438 6.996094 11.691406 6.953125 11.71875 6.90625 " fill-opacity="1" fill-rule="nonzero"/></g><path fill="#8fac6a" d="M 11.546875 8.070312 C 11.703125 8.058594 11.976562 7.90625 11.804688 7.734375 C 11.628906 7.578125 11.40625 7.757812 11.402344 7.960938 C 11.398438 8.054688 11.460938 8.078125 11.546875 8.070312 " fill-opacity="1" fill-rule="nonzero"/><path fill="#8fac6a" d="M 11.0625 4.828125 C 11.101562 4.757812 11.046875 4.683594 10.96875 4.632812 C 10.804688 4.53125 10.664062 4.734375 10.714844 4.890625 C 10.730469 4.949219 10.796875 4.964844 10.863281 4.953125 C 10.941406 4.9375 11.027344 4.894531 11.0625 4.828125 " fill-opacity="1" fill-rule="nonzero"/><path fill="#8fac6a" d="M 10.722656 9.925781 C 10.800781 9.875 10.730469 9.769531 10.691406 9.707031 C 10.636719 9.636719 10.503906 9.550781 10.410156 9.601562 C 10.359375 9.632812 10.308594 9.695312 10.308594 9.761719 C 10.304688 9.84375 10.382812 9.898438 10.457031 9.925781 C 10.535156 9.953125 10.648438 9.972656 10.722656 9.925781 " fill-opacity="1" fill-rule="nonzero"/><g clip-path="url(#2f04175c76)"><path fill="#8fac6a" d="M 8.242188 10.175781 C 8.28125 10.097656 8.21875 10.039062 8.15625 10.003906 C 8.066406 9.953125 7.898438 10.007812 7.898438 10.128906 C 7.894531 10.21875 7.964844 10.296875 8.058594 10.289062 C 8.128906 10.28125 8.207031 10.242188 8.242188 10.175781 " fill-opacity="1" fill-rule="nonzero"/></g><path fill="#8fac6a" d="M 7.648438 3.871094 C 7.664062 3.777344 7.644531 3.675781 7.609375 3.589844 C 7.585938 3.546875 7.550781 3.480469 7.5 3.472656 C 7.4375 3.460938 7.378906 3.523438 7.355469 3.574219 C 7.304688 3.6875 7.347656 3.839844 7.414062 3.9375 C 7.496094 4.058594 7.628906 4.007812 7.648438 3.871094 " fill-opacity="1" fill-rule="nonzero"/><g clip-path="url(#b2b4856838)"><path fill="#8fac6a" d="M 4.613281 4.980469 C 4.613281 4.777344 4.476562 4.597656 4.25 4.648438 C 4.085938 4.683594 3.972656 4.785156 3.980469 4.960938 C 4.011719 5.128906 4.121094 5.238281 4.296875 5.242188 C 4.472656 5.25 4.613281 5.175781 4.613281 4.980469 " fill-opacity="1" fill-rule="nonzero"/></g><g clip-path="url(#9fee3954d4)"><path fill="#8fac6a" d="M 3.667969 8.691406 C 3.773438 8.976562 4.3125 8.746094 4.050781 8.472656 C 3.96875 8.398438 3.859375 8.386719 3.769531 8.457031 C 3.699219 8.503906 3.636719 8.605469 3.667969 8.691406 " fill-opacity="1" fill-rule="nonzero"/></g><g clip-path="url(#65bb644d7b)"><path fill="#8fac6a" d="M 3.660156 6.902344 C 3.855469 6.851562 3.628906 6.601562 3.492188 6.632812 C 3.46875 6.640625 3.398438 6.652344 3.390625 6.679688 C 3.382812 6.710938 3.390625 6.761719 3.410156 6.789062 C 3.453125 6.859375 3.570312 6.925781 3.660156 6.902344 " fill-opacity="1" fill-rule="nonzero"/></g></svg>